<svg xmlns="http://www.w3.org/2000/svg" viewBox="0 0 512 512"><defs><style>.cls-1{fill:#76c27d;}.cls-2{fill:#afccd9;}.cls-3{fill:#c2e2f5;}.cls-4{fill:#ad3542;}.cls-5{fill:#fff;}.cls-6{fill:#d93a46;}.cls-7{fill:#d65366;}.cls-8{fill:#db3a46;}.cls-9{fill:#af3542;}.cls-10{fill:#d5d2d3;}.cls-11{fill:#fdfcfd;}</style></defs><title>Charity</title><g id="BULINE"><circle class="cls-1" cx="256" cy="262" r="250"/></g><g id="Icons"><path class="cls-2" d="M386.2,140.88v167a130.3,130.3,0,0,1-121.85,130c-2.79.19-5.62.28-8.47.28A130.31,130.31,0,0,1,125.57,307.85v-167a55.76,55.76,0,0,1,55.77-55.76H330.43A55.76,55.76,0,0,1,386.2,140.88Z"/><path class="cls-3" d="M386.2,140.88v167a130.3,130.3,0,0,1-121.85,130,130.29,130.29,0,0,1-121.83-130v-167a55.75,55.75,0,0,1,55.75-55.76H330.43A55.76,55.76,0,0,1,386.2,140.88Z"/><path class="cls-4" d="M360,282.18V340c0,38.37-38.31,69.48-85.58,69.48h-34c-47.28,0-85.6-31.11-85.6-69.48V282.18c0-16.43,16.4-29.75,36.64-29.75H323.39C343.61,252.43,360,265.75,360,282.18Z"/><circle class="cls-3" cx="255.88" cy="50.92" r="44.36"/><rect class="cls-5" x="200.2" y="115.39" width="114.44" height="86.12" rx="10.53"/><path class="cls-6" d="M237,166.94a20.45,20.45,0,1,0,40.9,0c0-11.29-20.45-37.42-20.45-37.42S237,155.65,237,166.94Z"/><circle class="cls-2" cx="255.88" cy="50.92" r="25.88"/><path class="cls-6" d="M262.13,409.51V511.93q-3.06.07-6.13.07t-6.36-.08V409.51Z"/><path class="cls-6" d="M360,247.23V340c0,38.38-38.32,69.48-85.58,69.48h-3.2c-47.26,0-85.58-31.1-85.58-69.48V282.17a23.84,23.84,0,0,1,.28-3.6l-31.1,2.55s-.83-44.69,35.67-47.19c0,0,3.93-.45,9.71-.52,10.31-.12,26.49,1,36.76,8,0,0,15.19,9.5,35.86,0,0,0,19.16-14.08,43-5.39a28.31,28.31,0,0,0,20-.45A20.47,20.47,0,0,1,354,236.76,12,12,0,0,1,360,247.23Z"/><path class="cls-4" d="M185.93,278.57l-31.1,2.55s-.83-44.69,35.67-47.19c0,0,3.93-.45,9.71-.52C185.56,248.49,185.93,278.57,185.93,278.57Z"/><rect class="cls-5" x="320" y="154.1" width="46.67" height="16.67" rx="8.33"/><rect class="cls-5" x="336" y="187.39" width="30.67" height="16.67" rx="8.33"/><rect class="cls-5" x="320" y="221.43" width="46.67" height="16.67" rx="8.33"/><rect class="cls-5" x="336" y="254.72" width="30.67" height="16.67" rx="8.33"/><rect class="cls-5" x="320" y="289.69" width="46.67" height="16.67" rx="8.33"/><rect class="cls-5" x="336" y="322.98" width="30.67" height="16.67" rx="8.33"/><circle class="cls-7" cx="236.97" cy="280.41" r="12.31"/><circle class="cls-7" cx="289.35" cy="298.03" r="12.31"/><circle class="cls-7" cx="264.36" cy="331.31" r="7.59"/><circle class="cls-7" cx="236.97" cy="365.43" r="7.59"/><circle class="cls-7" cx="300.25" cy="380.61" r="7.59"/><path class="cls-8" d="M491.86,91.54l-88.73,88.73L330,107.16l-15.6-15.62a51.68,51.68,0,0,1,73.09-73.09l15.62,15.62,15.62-15.62a51.69,51.69,0,0,1,73.11,73.09Z"/><path class="cls-9" d="M403.13,180.27,330,107.16l-15.6-15.62A51.68,51.68,0,0,1,344.85,3.68C341.26,41.63,344.19,114.57,403.13,180.27Z"/><path class="cls-10" d="M294.33,463v10a4.87,4.87,0,0,1-4.87,4.88h-5.75a4.88,4.88,0,0,0-4.88,4.87V511q-8.28.75-16.7,1-3.06.07-6.13.07t-6.36-.08l-2.81-.08q-5.87-.22-11.66-.7V482.72a4.88,4.88,0,0,0-4.88-4.87h-5.75a4.87,4.87,0,0,1-4.87-4.88V463a4.87,4.87,0,0,1,4.87-4.88h64.92A4.87,4.87,0,0,1,294.33,463Z"/><path class="cls-5" d="M294.33,463v10a4.87,4.87,0,0,1-4.87,4.88h-5.75a4.88,4.88,0,0,0-4.88,4.87V511q-8.28.75-16.7,1-3.06.07-6.13.07t-6.36-.08l-2.81-.08V482.72a4.87,4.87,0,0,0-4.87-4.87h-5.75a4.87,4.87,0,0,1-4.87-4.88V463a4.87,4.87,0,0,1,4.87-4.88h53.25A4.87,4.87,0,0,1,294.33,463Z"/><path class="cls-11" d="M403.13,116.07a7.54,7.54,0,0,1-5.31-2.2L371.69,87.74A7.5,7.5,0,0,1,382.3,77.13l20,20L438,48.65A7.5,7.5,0,1,1,450,57.55L409.16,113a7.46,7.46,0,0,1-5.47,3Z"/></g></svg>