<svg xmlns="http://www.w3.org/2000/svg" viewBox="0 0 48 48"><title>06-blood</title><g id="_06-blood" data-name="06-blood"><path d="M34,16V32a4,4,0,0,1-4,4H18a4,4,0,0,1-4-4V16a4,4,0,0,1,4-4H30A4,4,0,0,1,34,16ZM24,29a3.881,3.881,0,0,0,4-3.75C28,23.18,24,19,24,19s-4,4.18-4,6.25A3.881,3.881,0,0,0,24,29Z" style="fill:#e8eeff"/><path d="M28,25.25A3.881,3.881,0,0,1,24,29a3.881,3.881,0,0,1-4-3.75C20,23.18,24,19,24,19S28,23.18,28,25.25Z" style="fill:#f03049"/><path d="M22,23.25c0-1.087,1.1-2.751,2.149-4.091L24,19s-4,4.18-4,6.25A3.881,3.881,0,0,0,24,29a4,4,0,0,0,3.713-2.374A4.179,4.179,0,0,1,26,27,3.881,3.881,0,0,1,22,23.25Z" style="fill:#d1093a"/><path d="M39,14V34a8,8,0,0,1-8,8H17a8,8,0,0,1-8-8V14a8,8,0,0,1,8-8H31A8,8,0,0,1,39,14ZM34,32V16a4,4,0,0,0-4-4H18a4,4,0,0,0-4,4V32a4,4,0,0,0,4,4H30A4,4,0,0,0,34,32Z" style="fill:#d1093a"/><path d="M31,39H17a8,8,0,0,1-8-8v3a8,8,0,0,0,8,8H31a8,8,0,0,0,8-8V31A8,8,0,0,1,31,39Z" style="fill:#bd002f"/><path d="M31,6H17a8,8,0,0,0-8,8v3a8,8,0,0,1,8-8H31a8,8,0,0,1,8,8V14A8,8,0,0,0,31,6Z" style="fill:#f03049"/><path d="M30,12H18a4,4,0,0,0-4,4V32a4,4,0,0,0,4,4H30a4,4,0,0,0,4-4V16A4,4,0,0,0,30,12Zm3,20a3,3,0,0,1-3,3H18a3,3,0,0,1-3-3V16a3,3,0,0,1,3-3H30a3,3,0,0,1,3,3Z" style="fill:#f7f9ff"/><rect x="22" y="42" width="4" height="5" style="fill:#f03049"/><rect x="29" y="42" width="2" height="5" style="fill:#ff636e"/><rect x="17" y="42" width="2" height="5" style="fill:#ff636e"/><rect x="22" y="42" width="4" height="2" style="fill:#d1093a"/><rect x="24" y="44" width="2" height="3" style="fill:#ff475a"/><rect x="29" y="42" width="2" height="2" style="fill:#d1093a"/><rect x="17" y="42" width="2" height="2" style="fill:#d1093a"/><path d="M27,4V6H21V4a3,3,0,0,1,6,0Z" style="fill:#ccd7f2"/><rect x="21" y="5" width="6" height="1" style="fill:#a7bfe8"/><path d="M26.12,1.88A3,3,0,0,0,21,4V5h.183a2.979,2.979,0,0,1,5.632,0H27V4A2.993,2.993,0,0,0,26.12,1.88Z" style="fill:#dde4f7"/><path d="M31,6H17a8,8,0,0,0-8,8V34a8,8,0,0,0,8,8H31a8,8,0,0,0,8-8V14A8,8,0,0,0,31,6Zm7,28a7,7,0,0,1-7,7H17a7,7,0,0,1-7-7V14a7,7,0,0,1,7-7H31a7,7,0,0,1,7,7Z" style="fill:#dde4f7"/><path d="M32.263,33.95A2.974,2.974,0,0,0,33,32V16a3,3,0,0,0-3-3H18a3,3,0,0,0-3,3v4.7A29.023,29.023,0,0,0,32.263,33.95Z" style="fill:#f7f9ff"/><path d="M31,9H17a7.964,7.964,0,0,0-5.523,2.221A28.8,28.8,0,0,0,14,18.857V16a4,4,0,0,1,4-4H30a4,4,0,0,1,4,4V32a3.981,3.981,0,0,1-.674,2.221,29.078,29.078,0,0,0,4.607.7A7.15,7.15,0,0,0,38,34V14a7.056,7.056,0,0,0-.08-1A7.987,7.987,0,0,0,31,9Z" style="fill:#f03049"/><path d="M17,9H31a7.987,7.987,0,0,1,6.92,4A7,7,0,0,0,31,7H17a6.987,6.987,0,0,0-5.722,2.976q.086.627.2,1.245A7.964,7.964,0,0,1,17,9Z" style="fill:#ff475a"/><path d="M34,16a4,4,0,0,0-4-4H18a4,4,0,0,0-4,4v2.857q.466.944,1,1.846V16a3,3,0,0,1,3-3H30a3,3,0,0,1,3,3V32a2.974,2.974,0,0,1-.737,1.95q.526.145,1.063.271A3.981,3.981,0,0,0,34,32Z" style="fill:#f7f9ff"/><path d="M31,6H17a7.97,7.97,0,0,0-5.879,2.588q.062.7.157,1.388A6.987,6.987,0,0,1,17,7H31a7.059,7.059,0,0,1,7,7V34a7.15,7.15,0,0,1-.067.919l.036,0q.481.033.966.051A8,8,0,0,0,39,34V14A8,8,0,0,0,31,6Z" style="fill:#f7f9ff"/><path d="M28,25.25A3.881,3.881,0,0,1,24,29a3.881,3.881,0,0,1-4-3.75C20,23.18,24,19,24,19S28,23.18,28,25.25Z" style="fill:#f03049"/><path d="M22,23.25c0-1.087,1.1-2.751,2.149-4.091L24,19s-4,4.18-4,6.25A3.881,3.881,0,0,0,24,29a4,4,0,0,0,3.713-2.374A4.179,4.179,0,0,1,26,27,3.881,3.881,0,0,1,22,23.25Z" style="fill:#d1093a"/><ellipse cx="36" cy="14" rx="0.825" ry="1.148" transform="translate(0.65 29.568) rotate(-45.02)" style="fill:#f6fafd"/><ellipse cx="24" cy="25" rx="0.825" ry="1.148" transform="translate(-10.648 24.305) rotate(-45.02)" style="fill:#f6fafd"/><ellipse cx="34.003" cy="9.987" rx="1.642" ry="2.286" transform="translate(2.903 26.979) rotate(-45.02)" style="fill:#f6fafd"/><ellipse cx="25.746" cy="25.5" rx="0.413" ry="0.574" transform="translate(-10.491 25.686) rotate(-45.02)" style="fill:#f6fafd"/></g></svg>