<?xml version="1.0" encoding="utf-8"?>
<!-- Generator: Adobe Illustrator 23.0.4, SVG Export Plug-In . SVG Version: 6.00 Build 0)  -->
<svg version="1.1" id="Layer_1" xmlns="http://www.w3.org/2000/svg" xmlns:xlink="http://www.w3.org/1999/xlink" x="0px" y="0px"
	 viewBox="0 0 32 32" style="enable-background:new 0 0 32 32;" xml:space="preserve">
<style type="text/css">
	.st0{fill:#008AD0;}
	.st1{fill:#333333;}
</style>
<g>
	<path class="st1" d="M6,30H3c-1.103,0-2-0.897-2-2V15c0-1.103,0.897-2,2-2h3c1.103,0,2,0.897,2,2v13C8,29.103,7.103,30,6,30z M3,15
		v13h3V15H3z"/>
</g>
<g>
	<path class="st1" d="M27,18h-4c-0.552,0-1-0.447-1-1s0.448-1,1-1h4c0.551,0,1-0.448,1-1s-0.449-1-1-1H16c-0.552,0-1-0.447-1-1
		s0.448-1,1-1h11c1.654,0,3,1.346,3,3S28.654,18,27,18z"/>
</g>
<g>
	<path class="st1" d="M28,22h-4c-0.552,0-1-0.447-1-1s0.448-1,1-1h4c0.551,0,1-0.448,1-1s-0.449-1-1-1h-4c-0.552,0-1-0.447-1-1
		s0.448-1,1-1h4c1.654,0,3,1.346,3,3S29.654,22,28,22z"/>
</g>
<g>
	<path class="st1" d="M27,26h-4c-0.552,0-1-0.447-1-1s0.448-1,1-1h4c0.551,0,1-0.448,1-1s-0.449-1-1-1h-4c-0.552,0-1-0.447-1-1
		s0.448-1,1-1h4c1.654,0,3,1.346,3,3S28.654,26,27,26z"/>
</g>
<g>
	<path class="st1" d="M25,30H12c-2.296,0-5.305-2.452-5.64-2.731c-0.424-0.354-0.481-0.983-0.128-1.408
		c0.354-0.425,0.983-0.481,1.408-0.129C8.695,26.608,10.812,28,12,28h13c0.551,0,1-0.448,1-1s-0.449-1-1-1h-2c-0.552,0-1-0.447-1-1
		s0.448-1,1-1h2c1.654,0,3,1.346,3,3S26.654,30,25,30z"/>
</g>
<g>
	<path class="st1" d="M7,16c-0.105,0-0.211-0.017-0.317-0.052c-0.523-0.175-0.806-0.741-0.632-1.265
		c0.042-0.128,1.066-3.162,3.117-6.238c1.289-1.933,1.672-4.359,1.786-5.633C11.046,1.779,11.902,1,12.944,1H14c1.654,0,3,1.346,3,3
		v9c0,0.553-0.448,1-1,1s-1-0.447-1-1V4c0-0.552-0.449-1-1-1h-1.056c-0.129,1.454-0.578,4.253-2.112,6.555
		c-1.896,2.844-2.874,5.733-2.883,5.762C7.809,15.735,7.418,16,7,16z"/>
</g>
<g>
	<path class="st0" d="M23,8c-0.552,0-1-0.447-1-1V3c0-0.553,0.448-1,1-1s1,0.447,1,1v4C24,7.553,23.552,8,23,8z"/>
</g>
<g>
	<path class="st0" d="M25,6h-4c-0.552,0-1-0.447-1-1s0.448-1,1-1h4c0.552,0,1,0.447,1,1S25.552,6,25,6z"/>
</g>
</svg>
