<svg id="icons" xmlns="http://www.w3.org/2000/svg" viewBox="0 0 340 340"><path d="M322.451,147.826H317.51s0-13.11-8.314-13.11h-6.85a13.984,13.984,0,0,0-11.1,5.475l-3.157,4.118a334.257,334.257,0,0,1-55.483-.769,25.653,25.653,0,0,1-12.428-4.639c-4.1-2.909-10.61-6.423-18.105-6.423h-13.27a5.916,5.916,0,0,1-5.916-5.916V114.891H157.11v11.671a5.916,5.916,0,0,1-5.915,5.916H137.924c-7.5,0-14,3.514-18.105,6.423a25.653,25.653,0,0,1-12.428,4.639,334.257,334.257,0,0,1-55.483.769l-3.157-4.118a13.983,13.983,0,0,0-11.1-5.475H30.8c-8.314,0-8.314,13.11-8.314,13.11H17.549A8.779,8.779,0,0,0,8.771,156.6v8.664a8.778,8.778,0,0,0,8.778,8.778H34.987a26.138,26.138,0,0,0,12.555-3.213l1.41-.772a26.141,26.141,0,0,1,13.168-3.205l62.065,1.454a13.088,13.088,0,0,1,12.78,13.084v66.837h66.07V181.4a13.088,13.088,0,0,1,12.781-13.084l62.064-1.454a26.141,26.141,0,0,1,13.168,3.205l1.41.772a26.138,26.138,0,0,0,12.555,3.213h17.438a8.778,8.778,0,0,0,8.779-8.778V156.6A8.779,8.779,0,0,0,322.451,147.826Z" style="fill:#ffd6bb"/><rect x="136.965" y="248.232" width="66.07" height="56.965" style="fill:#8986a3"/><rect x="136.965" y="305.197" width="33.035" height="25.457" style="fill:#ffd6bb"/><rect x="170" y="305.197" width="33.035" height="25.457" style="fill:#ffd6bb"/><path d="M283.13,64.767c-4.541.321-9.645,2.335-14.162,8.085-4.517-5.75-9.62-7.764-14.161-8.085a18.288,18.288,0,0,0-19.749,17.741c0,.348,0,.692.009,1.03a18.067,18.067,0,0,0,6.557,13.22l27.344,22.874,27.345-22.874a18.07,18.07,0,0,0,6.556-13.22c.011-.338.014-.682.01-1.03A18.29,18.29,0,0,0,283.13,64.767Z" style="fill:#ff8585"/><polygon points="170 330.654 174 330.654 174 305.197 170 305.197 166 305.197 166 330.654 170 330.654" style="fill:#f4a28c"/><path d="M176.85,277.4h-13.7a4,4,0,0,0,0,8H166v19.8h8V285.4h2.85a4,4,0,0,0,0-8Z" style="fill:#6f6f7f"/><path d="M182.89,126.562V114.891H157.11v8.948a70.146,70.146,0,0,0,27.311,6.684A5.887,5.887,0,0,1,182.89,126.562Z" style="fill:#f4a28c"/><path d="M149.144,17.246a30.02,30.02,0,0,0-22.117,14.332,34.363,34.363,0,0,0-4.162,24.832c1.691,8.537,6.048,19.756,17.176,25.5h59.918s8.013-4.275,12.465-15.742a40.107,40.107,0,0,0-1-30.41c-.643-1.485-1.389-3.03-2.254-4.6-9.931-18.04-31.543-26.617-50.716-19.1A39.073,39.073,0,0,0,149.144,17.246Z" style="fill:#6f6f7f"/><path d="M159.74,36.608s-4.1,27.086,40.219,27.086V90.369A29.959,29.959,0,0,1,170,120.328h0a29.959,29.959,0,0,1-29.959-29.959V71.878a41.685,41.685,0,0,1,9.333-26.653A34.508,34.508,0,0,1,159.74,36.608Z" style="fill:#ffd6bb"/><path d="M153.672,92.176a14.845,14.845,0,0,0,6.809,13.09,17.3,17.3,0,0,0,19.038,0,14.846,14.846,0,0,0,6.81-13.09Z" style="fill:#ff7676"/><rect x="136.965" y="240.148" width="66.07" height="8.084" style="fill:#f4a28c"/><path d="M159.74,36.608a33.216,33.216,0,0,0-8.473,6.5c2.468,10.94,11.992,31.271,48.692,27.766V63.694C155.636,63.694,159.74,36.608,159.74,36.608Z" style="fill:#f4a28c"/><path d="M322.451,143.826h-1.277c-.96-5.905-4.162-13.11-11.978-13.11h-6.85a18.091,18.091,0,0,0-14.271,7.042l-2.07,2.7c-1.033.072-2.52.165-4.39.256-.565-8.946-3.268-15.279-9.509-22.867l-.013-.017c-.014-.016-.025-.032-.038-.047-.082-.1-.178-.176-.267-.265s-.159-.18-.254-.26l-.052-.044-.005,0L243.534,93.835a14.5,14.5,0,0,1-5.281-10.593c-.009-.288-.013-.58-.008-.877a14.129,14.129,0,0,1,4.642-10.294,15.191,15.191,0,0,1,11.3-3.935c4.444.313,8.359,2.588,11.635,6.759a4,4,0,0,0,6.291,0c3.278-4.172,7.193-6.447,11.638-6.76a15.13,15.13,0,0,1,11.3,3.934,14.131,14.131,0,0,1,4.642,10.3c.005.3,0,.588-.007.874a14.494,14.494,0,0,1-5.283,10.6l-15.35,12.841a4,4,0,0,0,5.133,6.137l15.35-12.841A22.506,22.506,0,0,0,307.68,83.49c.012-.405.016-.818.011-1.233a22.064,22.064,0,0,0-7.228-16.077,22.948,22.948,0,0,0-31.5.34,22.947,22.947,0,0,0-31.5-.339,22.55,22.55,0,0,0-4.442,5.614c-2.1-1.4-4.25-2.738-6.429-3.987a4,4,0,0,0-3.979,6.941c2.662,1.526,5.279,3.192,7.807,4.951a22.542,22.542,0,0,0-.185,2.557c0,.415,0,.828.012,1.236A22.5,22.5,0,0,0,238.4,99.972l27.7,23.168c4.964,6.088,7.037,10.841,7.517,17.855a355.234,355.234,0,0,1-40.631-1.437,21.709,21.709,0,0,1-10.489-3.919c-4.606-3.267-11.888-7.161-20.419-7.161h-13.27a1.918,1.918,0,0,1-1.916-1.916v-6.751a33.972,33.972,0,0,0,17.069-29.442V84.046a36.78,36.78,0,0,0,12.193-16.435A43.84,43.84,0,0,0,215.1,34.165c-.73-1.688-1.544-3.351-2.421-4.943C201.647,9.19,177.709.206,157,8.322a43.259,43.259,0,0,0-9.357,5.067A34.253,34.253,0,0,0,123.628,29.47a38.234,38.234,0,0,0-4.687,27.718,54.419,54.419,0,0,0,1.8,6.782,114.09,114.09,0,0,0-54.087,54.665,4,4,0,1,0,7.25,3.381A106.1,106.1,0,0,1,123.949,71.3a34.264,34.264,0,0,0,12.093,12.931v6.136a33.971,33.971,0,0,0,17.068,29.442v6.751a1.918,1.918,0,0,1-1.916,1.916h-13.27c-8.532,0-15.813,3.894-20.419,7.16a21.7,21.7,0,0,1-10.488,3.92,342.966,342.966,0,0,1-53.022.9l-2.069-2.7a18.1,18.1,0,0,0-14.272-7.042H30.8c-7.816,0-11.017,7.2-11.977,13.11H17.549A12.793,12.793,0,0,0,4.771,156.6v8.664a12.792,12.792,0,0,0,12.778,12.778H34.987a30.218,30.218,0,0,0,14.478-3.7l1.408-.771a22.118,22.118,0,0,1,5.27-2.053,113.526,113.526,0,0,0,52.594,91.347,4,4,0,0,0,4.306-6.743,105.562,105.562,0,0,1-48.921-85.217l59.969,1.406a9.141,9.141,0,0,1,8.874,9.084V330.654a4,4,0,0,0,8,0V309.2H166v21.457a4,4,0,0,0,8,0V285.4h2.85a4,4,0,0,0,0-8h-13.7a4,4,0,0,0,0,8H166v15.8H140.965V252.232h58.07V301.2H187.111a4,4,0,0,0,0,8h11.924v21.457a4,4,0,0,0,8,0V274.548a113.9,113.9,0,0,0,74.632-84.916,4,4,0,0,0-7.838-1.6,105.9,105.9,0,0,1-66.794,78.015V181.4a9.141,9.141,0,0,1,8.874-9.084l62.065-1.455a22.284,22.284,0,0,1,11.152,2.714l1.41.772a30.211,30.211,0,0,0,14.477,3.7h17.438a12.792,12.792,0,0,0,12.778-12.778V156.6A12.793,12.793,0,0,0,322.451,143.826ZM126.789,55.633a30.264,30.264,0,0,1,3.637-21.946,25.887,25.887,0,0,1,18.94-12.447,4.009,4.009,0,0,0,2.187-.8,35.21,35.21,0,0,1,8.362-4.668c16.988-6.656,36.656.785,45.752,17.308.755,1.371,1.457,2.805,2.088,4.263a35.9,35.9,0,0,1,.94,27.373,31.268,31.268,0,0,1-4.736,8.3v-9.32a4,4,0,0,0-4-4c-15.252,0-26.308-3.421-31.97-9.894a17.022,17.022,0,0,1-4.29-12.622,4,4,0,0,0-5.826-4.107,38.39,38.39,0,0,0-11.578,9.6,45.736,45.736,0,0,0-10.253,29.206v2.266C130.5,68.787,127.945,61.471,126.789,55.633Zm17.253,34.736V71.878a37.726,37.726,0,0,1,8.411-24.1,34.324,34.324,0,0,1,3.811-3.932,25.306,25.306,0,0,0,5.555,11.05c6.749,7.849,18.223,12.122,34.14,12.723v22.75a25.959,25.959,0,1,1-51.917,0Zm183.187,74.9a4.783,4.783,0,0,1-4.778,4.778H305.013a22.181,22.181,0,0,1-10.633-2.721l-1.411-.773a30.278,30.278,0,0,0-15.183-3.695l-62.064,1.455a17.209,17.209,0,0,0-16.368,13.849c-10.722,2.259-17.647-.258-17.82-.323a4,4,0,0,0-2.949,7.437,34.746,34.746,0,0,0,12.023,1.839,49.629,49.629,0,0,0,8.427-.745v57.862h-58.07V181.4a17.189,17.189,0,0,0-16.687-17.082l-62.065-1.455c-.412-.009-.824.006-1.236.013a3.724,3.724,0,0,0-2.3.127,30.257,30.257,0,0,0-11.65,3.556l-1.409.772a22.2,22.2,0,0,1-10.634,2.721H17.549a4.783,4.783,0,0,1-4.778-4.778V156.6a4.784,4.784,0,0,1,4.778-4.779h9.14v9.562a4,4,0,0,0,8,0v-2.354a11.564,11.564,0,0,0,4.2.747,4,4,0,1,0,0-8c-3.089,0-3.681-3.657-3.764-4.356a4,4,0,0,0-3.98-3.6H26.991c.528-2.447,1.606-5.11,3.813-5.11h6.85a10.043,10.043,0,0,1,7.923,3.909l3.157,4.117a4,4,0,0,0,2.812,1.55,334.832,334.832,0,0,0,56.22-.769,29.714,29.714,0,0,0,14.367-5.359c3.658-2.593,9.366-5.686,15.791-5.686h13.27a9.927,9.927,0,0,0,9.916-9.916V123.14a33.857,33.857,0,0,0,17.78,0v3.422a9.927,9.927,0,0,0,9.916,9.916h13.27c6.425,0,12.134,3.093,15.792,5.687a29.723,29.723,0,0,0,14.367,5.358,335.326,335.326,0,0,0,56.219.769,4,4,0,0,0,2.812-1.549l3.158-4.118a10.041,10.041,0,0,1,7.922-3.909h6.85c2.181,0,3.26,2.663,3.8,5.11h-4.136a4.038,4.038,0,0,0-3.976,3.566c-.087.732-.679,4.389-3.768,4.389a4,4,0,0,0,0,8,11.57,11.57,0,0,0,4.2-.747v2.354a4,4,0,1,0,8,0v-9.562h9.139a4.784,4.784,0,0,1,4.778,4.779Z" style="fill:#494456"/><path d="M176.714,142.524l-7.125,6.168A10.378,10.378,0,0,0,166,156.544v17.271a5.926,5.926,0,0,1-1.932,4.406,6.059,6.059,0,0,1-4.647,1.588,20.759,20.759,0,0,1-7.286-1.853,4,4,0,1,0-3.464,7.211,28.666,28.666,0,0,0,10.092,2.615q.579.048,1.158.047A14.033,14.033,0,0,0,174,173.815V156.544a2.389,2.389,0,0,1,.825-1.8l7.125-6.167a4,4,0,0,0-5.236-6.049Z" style="fill:#494456"/><path d="M154.535,148.99l3.847,2.278a4,4,0,0,0,4.077-6.883l-3.847-2.278a4,4,0,1,0-4.077,6.883Z" style="fill:#494456"/><path d="M170,193.859a4,4,0,0,0-4,4V203.5a4.217,4.217,0,0,1-4.211,4.212H158.5a4,4,0,0,0,0,8h3.292A12.225,12.225,0,0,0,174,203.5v-5.644A4,4,0,0,0,170,193.859Z" style="fill:#494456"/><path d="M169.89,219.093a4,4,0,0,0-4,4v8.932a4,4,0,0,0,8,0v-8.932A4,4,0,0,0,169.89,219.093Z" style="fill:#494456"/><path d="M181.322,215.715H186.9a4,4,0,0,0,0-8h-5.578a4,4,0,0,0,0,8Z" style="fill:#494456"/><path d="M282.482,81.365a4,4,0,0,0-5.656,0l-9.206,9.206-2.5-2.5a4,4,0,0,0-5.656,5.656l5.333,5.333a4,4,0,0,0,5.656,0l12.034-12.034A4,4,0,0,0,282.482,81.365Z" style="fill:#494456"/><path d="M181.732,108.6a18.838,18.838,0,0,0,8.6-16.422,4,4,0,0,0-4-4H153.671a4,4,0,0,0-4,4,18.838,18.838,0,0,0,8.6,16.422,21.433,21.433,0,0,0,23.464,0ZM158.238,96.176h23.525a10.575,10.575,0,0,1-4.456,5.758,13.346,13.346,0,0,1-14.613,0A10.575,10.575,0,0,1,158.238,96.176Z" style="fill:#494456"/><circle cx="159.36" cy="80.301" r="4" style="fill:#494456"/><circle cx="179.32" cy="80.301" r="4" style="fill:#494456"/></svg>