<?xml version="1.0" encoding="UTF-8" standalone="no"?>
<svg
   xmlns:dc="http://purl.org/dc/elements/1.1/"
   xmlns:cc="http://creativecommons.org/ns#"
   xmlns:rdf="http://www.w3.org/1999/02/22-rdf-syntax-ns#"
   xmlns:svg="http://www.w3.org/2000/svg"
   xmlns="http://www.w3.org/2000/svg"
   width="100%"
   height="100%"
   viewBox="0 0 64 64"
   version="1.1"
   xml:space="preserve"
   style="fill-rule:evenodd;clip-rule:evenodd;stroke-linecap:round;stroke-linejoin:round;stroke-miterlimit:2;"
   id="svg9">
  <metadata
   id="metadata15">
    <rdf:RDF>
      <cc:Work
   rdf:about="">
        <dc:format>image/svg+xml</dc:format>

        <dc:type
   rdf:resource="http://purl.org/dc/dcmitype/StillImage" />

      </cc:Work>

    </rdf:RDF>

  </metadata>

  <defs
   id="defs13" />

  
  <path
   d="M43.214,44l-11.214,12.234l-20.275,-22.118c-4.579,-4.996 -4.241,-12.769 0.754,-17.348c4.996,-4.579 12.769,-4.241 17.348,0.754l2.173,2.371l2.173,-2.371c4.579,-4.995 12.352,-5.333 17.348,-0.754c4.995,4.579 5.333,12.352 0.754,17.348l-5.275,5.754"
   style="fill:none;stroke:#222a33;stroke-width:2px;"
   id="path3" />

  <path
   d="M56,40c0.004,-0.084 -9.5,0 -9.5,0l-4,-8l-5.5,11l-5,-11l-4,8.5l-5,0"
   style="fill:none;stroke:#222a33;stroke-width:2px;"
   id="path5" />

  <path
   d="M14.868,31.187c-3.217,-3.509 -2.98,-8.97 0.53,-12.187"
   style="fill:none;stroke:#222a33;stroke-width:2px;"
   id="path7" />

</svg>
